<svg width="16" height="20" viewBox="0 0 16 20" fill="none" xmlns="http://www.w3.org/2000/svg">
<path fill-rule="evenodd" clip-rule="evenodd" d="M8 0.914551C8.54247 0.914551 8.98222 1.3543 8.98222 1.89676V8.29876L14.5265 5.09775C14.9963 4.82652 15.597 4.98748 15.8682 5.45727C16.1395 5.92705 15.9785 6.52777 15.5087 6.799L9.96443 10L15.5087 13.201C15.9785 13.4722 16.1395 14.073 15.8682 14.5427C15.597 15.0125 14.9963 15.1735 14.5265 14.9023L8.98222 11.7012V18.1033C8.98222 18.6457 8.54247 19.0855 8 19.0855C7.45754 19.0855 7.01779 18.6457 7.01779 18.1033V11.7012L1.47348 14.9023C1.0037 15.1735 0.402986 15.0125 0.131756 14.5427C-0.139475 14.073 0.0214853 13.4722 0.49127 13.201L6.03558 10L0.49127 6.799C0.0214853 6.52777 -0.139475 5.92705 0.131756 5.45727C0.402986 4.98748 1.0037 4.82652 1.47348 5.09775L7.01779 8.29876V1.89676C7.01779 1.3543 7.45754 0.914551 8 0.914551Z" fill="#333333"/>
</svg>
