<svg width="24" height="24" viewBox="0 0 24 24" fill="none" xmlns="http://www.w3.org/2000/svg">
<path fill-rule="evenodd" clip-rule="evenodd" d="M9.89037 4.42014C6.91419 5.81171 6.31376 8.58332 6.36545 9.70305C6.36618 9.71868 6.36654 9.73433 6.36654 9.74997L6.36653 10.5C6.36653 13.6711 5.77436 15.7172 5.13353 17H18.8666C18.2261 15.7173 17.6342 13.6712 17.6342 10.5V9.8347C17.6342 6.64328 15.1334 4.02381 12.0438 4.00011C11.3059 3.99553 10.5742 4.13826 9.89037 4.42014ZM9.12793 2.57652C10.0572 2.18969 11.0526 1.99381 12.0566 2.00015L12.0578 2.00016C16.2648 2.03197 19.6002 5.58246 19.6002 9.8347V10.5C19.6002 13.7167 20.2608 15.4843 20.7659 16.3687L19.9159 16.8711L20.7641 16.3656C20.917 16.6312 20.9984 16.933 21 17.2407C21.0016 17.5485 20.9234 17.8512 20.7733 18.1183C20.6232 18.3855 20.4066 18.6077 20.1451 18.7625C19.8837 18.9173 19.5868 18.9992 19.2843 19L19.2818 19H4.71825L4.71572 19C4.41319 18.9992 4.11623 18.9173 3.85478 18.7624C3.59333 18.6076 3.37664 18.3854 3.22657 18.1182C3.0765 17.8509 2.99836 17.5482 3.00003 17.2404C3.00169 16.9334 3.08272 16.6323 3.23495 16.3672C3.74021 15.4825 4.40056 13.7151 4.40056 10.5L4.40056 9.77185C4.33119 8.05256 5.20249 4.39794 9.09211 2.59228C9.10394 2.58679 9.11589 2.58153 9.12793 2.57652Z" fill="#333333"/>
<path fill-rule="evenodd" clip-rule="evenodd" d="M9 17C9.55228 17 10 17.3893 10 17.8696V18.5217C10 18.983 10.2107 19.4253 10.5858 19.7515C10.9609 20.0776 11.4696 20.2609 12 20.2609C12.5304 20.2609 13.0391 20.0776 13.4142 19.7515C13.7893 19.4253 14 18.983 14 18.5217V17.8696C14 17.3893 14.4477 17 15 17C15.5523 17 16 17.3893 16 17.8696V18.5217C16 19.4442 15.5786 20.3289 14.8284 20.9812C14.0783 21.6335 13.0609 22 12 22C10.9391 22 9.92172 21.6335 9.17157 20.9812C8.42143 20.3289 8 19.4442 8 18.5217V17.8696C8 17.3893 8.44772 17 9 17Z" fill="#333333"/>
</svg>
