<svg width="24" height="24" viewBox="0 0 24 24" fill="currentColor" xmlns="http://www.w3.org/2000/svg">
  <path fill-rule="evenodd" clip-rule="evenodd"
    d="M17.75 3C17.75 2.44772 17.3023 2 16.75 2C16.1977 2 15.75 2.44772 15.75 3V3.5H8.75V3C8.75 2.44772 8.30228 2 7.75 2C7.19772 2 6.75 2.44772 6.75 3V3.5H4.75C3.7835 3.5 3 4.2835 3 5.25V9V20.25C3 21.2165 3.7835 22 4.75 22H19.75C20.7165 22 21.5 21.2165 21.5 20.25V9V5.25C21.5 4.2835 20.7165 3.5 19.75 3.5H17.75V3ZM19.5 8V5.5H17.75V6C17.75 6.55228 17.3023 7 16.75 7C16.1977 7 15.75 6.55228 15.75 6V5.5H8.75V6C8.75 6.55228 8.30228 7 7.75 7C7.19772 7 6.75 6.55228 6.75 6V5.5H5V8H19.5ZM5 10H19.5V20H5V10Z" />
</svg>