<svg width="24" height="24" viewBox="0 0 24 24" fill="currentColor" xmlns="http://www.w3.org/2000/svg">
  <g id="ChartLineUp">
    <g id="Group 7">
      <path id="Vector (Stroke)" fill-rule="evenodd" clip-rule="evenodd"
        d="M3 3.5C3.55228 3.5 4 3.94772 4 4.5V18.5H21C21.5523 18.5 22 18.9477 22 19.5C22 20.0523 21.5523 20.5 21 20.5H3C2.44772 20.5 2 20.0523 2 19.5V4.5C2 3.94772 2.44772 3.5 3 3.5Z" />
      <path id="Vector (Stroke)_2" fill-rule="evenodd" clip-rule="evenodd"
        d="M20.2074 5.29289C20.5979 5.68342 20.5979 6.31658 20.2074 6.70711L12.7074 14.2071C12.3168 14.5976 11.6837 14.5976 11.2931 14.2071L9.00024 11.9142L3.70735 17.2071C3.31683 17.5976 2.68366 17.5976 2.29314 17.2071C1.90261 16.8166 1.90261 16.1834 2.29314 15.7929L8.29314 9.79289C8.68366 9.40237 9.31683 9.40237 9.70735 9.79289L12.0002 12.0858L18.7931 5.29289C19.1837 4.90237 19.8168 4.90237 20.2074 5.29289Z" />
      <path id="Vector (Stroke)_3" fill-rule="evenodd" clip-rule="evenodd"
        d="M14.7502 6C14.7502 5.44772 15.198 5 15.7502 5H19.5002C20.0525 5 20.5002 5.44772 20.5002 6V9.75C20.5002 10.3023 20.0525 10.75 19.5002 10.75C18.948 10.75 18.5002 10.3023 18.5002 9.75V7H15.7502C15.198 7 14.7502 6.55228 14.7502 6Z" />
    </g>
  </g>
</svg>