<svg width="24" height="24" viewBox="0 0 24 24" fill="currentColor" xmlns="http://www.w3.org/2000/svg">
  <path fill-rule="evenodd" clip-rule="evenodd"
    d="M5.02817 5.02817V13.452C5.02817 14.012 4.57415 14.4661 4.01408 14.4661C3.45402 14.4661 3 14.012 3 13.452V4.77465C3 4.30398 3.18697 3.85259 3.51978 3.51978C3.85259 3.18697 4.30398 3 4.77465 3H19.2254C19.696 3 20.1474 3.18697 20.4802 3.51978C20.813 3.85259 21 4.30398 21 4.77465V19.2254C21 19.696 20.813 20.1474 20.4802 20.4802C20.1474 20.813 19.696 21 19.2254 21H12.7259C12.1659 21 11.7119 20.546 11.7119 19.9859C11.7119 19.4258 12.1659 18.9718 12.7259 18.9718H18.9718V5.02817H5.02817Z" />
  <path fill-rule="evenodd" clip-rule="evenodd"
    d="M14.6805 13.2929C15.1065 13.6834 15.1065 14.3166 14.6805 14.7071L8.13503 20.7071C7.709 21.0976 7.01827 21.0976 6.59225 20.7071L3.31952 17.7071C2.89349 17.3166 2.89349 16.6834 3.31952 16.2929C3.74555 15.9024 4.43627 15.9024 4.8623 16.2929L7.36364 18.5858L13.1377 13.2929C13.5637 12.9024 14.2545 12.9024 14.6805 13.2929Z" />
</svg>