<svg width="24" height="24" viewBox="0 0 24 24" fill="none" xmlns="http://www.w3.org/2000/svg">
<path fill-rule="evenodd" clip-rule="evenodd" d="M16.8484 9.05953C17.2297 9.45903 17.215 10.092 16.8155 10.4734L11.3154 15.7234C10.929 16.0922 10.3209 16.0922 9.93449 15.7234L7.18452 13.0984C6.78503 12.717 6.77031 12.084 7.15165 11.6845C7.53299 11.285 8.16599 11.2703 8.56548 11.6516L10.625 13.6176L15.4345 9.02664C15.834 8.64531 16.467 8.66003 16.8484 9.05953Z" fill="#333333"/>
<path fill-rule="evenodd" clip-rule="evenodd" d="M4.75 4.75V19.25H19.25V4.75H4.75ZM2.75 4.5C2.75 3.5335 3.5335 2.75 4.5 2.75H19.5C20.4665 2.75 21.25 3.5335 21.25 4.5V19.5C21.25 20.4665 20.4665 21.25 19.5 21.25H4.5C3.5335 21.25 2.75 20.4665 2.75 19.5V4.5Z" fill="#333333"/>
</svg>
