<svg width="25" height="24" viewBox="0 0 25 24" fill="none" xmlns="http://www.w3.org/2000/svg">
<path fill-rule="evenodd" clip-rule="evenodd" d="M12.5 4C8.08172 4 4.5 7.58172 4.5 12C4.5 16.4183 8.08172 20 12.5 20C16.9183 20 20.5 16.4183 20.5 12C20.5 7.58172 16.9183 4 12.5 4ZM2.5 12C2.5 6.47715 6.97715 2 12.5 2C18.0228 2 22.5 6.47715 22.5 12C22.5 17.5228 18.0228 22 12.5 22C6.97715 22 2.5 17.5228 2.5 12Z" fill="#333333"/>
<path fill-rule="evenodd" clip-rule="evenodd" d="M13.2804 6.57686C12.5044 6.42252 11.7002 6.50173 10.9693 6.80448C10.2384 7.10723 9.61365 7.61993 9.17412 8.27772C8.7346 8.93552 8.5 9.70888 8.5 10.5C8.5 11.0523 8.94772 11.5 9.5 11.5C10.0523 11.5 10.5 11.0523 10.5 10.5C10.5 10.1044 10.6173 9.71776 10.8371 9.38886C11.0568 9.05996 11.3692 8.80362 11.7346 8.65224C12.1001 8.50087 12.5022 8.46126 12.8902 8.53843C13.2781 8.6156 13.6345 8.80608 13.9142 9.08579C14.1939 9.36549 14.3844 9.72186 14.4616 10.1098C14.5387 10.4978 14.4991 10.8999 14.3478 11.2654C14.1964 11.6308 13.94 11.9432 13.6111 12.1629C13.2822 12.3827 12.8956 12.5 12.5 12.5C11.9477 12.5 11.5 12.9477 11.5 13.5V14.25C11.5 14.8023 11.9477 15.25 12.5 15.25C13.01 15.25 13.4308 14.8683 13.4923 14.375C13.9281 14.2634 14.3443 14.0785 14.7223 13.8259C15.3801 13.3864 15.8928 12.7616 16.1955 12.0307C16.4983 11.2998 16.5775 10.4956 16.4231 9.71964C16.2688 8.94372 15.8878 8.23098 15.3284 7.67157C14.769 7.11217 14.0563 6.7312 13.2804 6.57686ZM13.625 17.25C13.625 17.8713 13.1213 18.375 12.5 18.375C11.8787 18.375 11.375 17.8713 11.375 17.25C11.375 16.6287 11.8787 16.125 12.5 16.125C13.1213 16.125 13.625 16.6287 13.625 17.25Z" fill="#333333"/>
</svg>
