<svg width="25" height="24" viewBox="0 0 25 24" fill="none" xmlns="http://www.w3.org/2000/svg">
<path fill-rule="evenodd" clip-rule="evenodd" d="M17.3484 9.05953C17.7297 9.45903 17.715 10.092 17.3155 10.4734L11.8154 15.7234C11.429 16.0922 10.8209 16.0922 10.4345 15.7234L7.68452 13.0984C7.28503 12.717 7.27031 12.084 7.65165 11.6845C8.03299 11.285 8.66599 11.2703 9.06548 11.6516L11.125 13.6176L15.9345 9.02664C16.334 8.64531 16.967 8.66003 17.3484 9.05953Z" fill="#333333"/>
<path fill-rule="evenodd" clip-rule="evenodd" d="M12.5 4C8.08172 4 4.5 7.58172 4.5 12C4.5 16.4183 8.08172 20 12.5 20C16.9183 20 20.5 16.4183 20.5 12C20.5 7.58172 16.9183 4 12.5 4ZM2.5 12C2.5 6.47715 6.97715 2 12.5 2C18.0228 2 22.5 6.47715 22.5 12C22.5 17.5228 18.0228 22 12.5 22C6.97715 22 2.5 17.5228 2.5 12Z" fill="#333333"/>
</svg>
