<svg width="25" height="24" viewBox="0 0 25 24" fill="none" xmlns="http://www.w3.org/2000/svg">
<path fill-rule="evenodd" clip-rule="evenodd" d="M12.5 4C8.08172 4 4.5 7.58172 4.5 12C4.5 16.4183 8.08172 20 12.5 20C16.9183 20 20.5 16.4183 20.5 12C20.5 7.58172 16.9183 4 12.5 4ZM2.5 12C2.5 6.47715 6.97715 2 12.5 2C18.0228 2 22.5 6.47715 22.5 12C22.5 17.5228 18.0228 22 12.5 22C6.97715 22 2.5 17.5228 2.5 12Z" fill="#333333"/>
<path fill-rule="evenodd" clip-rule="evenodd" d="M13.625 7.875C13.625 8.49632 13.1213 9 12.5 9C11.8787 9 11.375 8.49632 11.375 7.875C11.375 7.25368 11.8787 6.75 12.5 6.75C13.1213 6.75 13.625 7.25368 13.625 7.875ZM11.75 10.25C11.1977 10.25 10.75 10.6977 10.75 11.25C10.75 11.716 11.0687 12.1075 11.5 12.2185V16.5C11.5 17.0523 11.9477 17.5 12.5 17.5H13.25C13.8023 17.5 14.25 17.0523 14.25 16.5C14.25 16.034 13.9313 15.6425 13.5 15.5315V11.25C13.5 10.6977 13.0523 10.25 12.5 10.25H11.75Z" fill="#333333"/>
</svg>
