<svg width="25" height="24" viewBox="0 0 25 24" fill="currentColor" xmlns="http://www.w3.org/2000/svg">
  <g id="ClipboardText">
    <g id="Group 5">
      <path id="Vector (Stroke)" fill-rule="evenodd" clip-rule="evenodd"
        d="M8.1144 2.96386C8.1144 2.43153 8.54593 2 9.07825 2H16.3072C16.8395 2 17.271 2.43153 17.271 2.96386V6.57831C17.271 7.11064 16.8395 7.54217 16.3072 7.54217H9.07825C8.54593 7.54217 8.1144 7.11064 8.1144 6.57831V2.96386ZM10.0421 3.92771V5.61446H15.3433V3.92771H10.0421Z" />
      <path id="Vector (Stroke)_2" fill-rule="evenodd" clip-rule="evenodd"
        d="M6.42771 5.37351H9.07831C9.61064 5.37351 10.0422 4.94198 10.0422 4.40966C10.0422 3.87733 9.61064 3.4458 9.07831 3.4458H6.18675C5.73939 3.4458 5.31036 3.62351 4.99404 3.93984C4.67771 4.25616 4.5 4.68519 4.5 5.13255V20.3133C4.5 20.7606 4.67771 21.1897 4.99404 21.506C5.31036 21.8223 5.7394 22 6.18675 22H19.1988C19.6461 22 20.0752 21.8223 20.3915 21.506C20.7078 21.1896 20.8855 20.7606 20.8855 20.3133V5.13255C20.8855 4.6852 20.7078 4.25617 20.3915 3.93984C20.0752 3.62351 19.6461 3.4458 19.1988 3.4458H16.3072C15.7749 3.4458 15.3434 3.87733 15.3434 4.40966C15.3434 4.94198 15.7749 5.37351 16.3072 5.37351H18.9578V20.0723H6.42771V5.37351Z" />
      <path id="Vector (Stroke)_3" fill-rule="evenodd" clip-rule="evenodd"
        d="M8.83737 14.5301C8.83737 13.9978 9.2689 13.5662 9.80123 13.5662H15.5844C16.1167 13.5662 16.5482 13.9978 16.5482 14.5301C16.5482 15.0624 16.1167 15.4939 15.5844 15.4939H9.80123C9.2689 15.4939 8.83737 15.0624 8.83737 14.5301Z" />
      <path id="Vector (Stroke)_4" fill-rule="evenodd" clip-rule="evenodd"
        d="M8.83737 11.6385C8.83737 11.1062 9.2689 10.6747 9.80123 10.6747H15.5844C16.1167 10.6747 16.5482 11.1062 16.5482 11.6385C16.5482 12.1709 16.1167 12.6024 15.5844 12.6024H9.80123C9.2689 12.6024 8.83737 12.1709 8.83737 11.6385Z" />
    </g>
  </g>
</svg>