<svg width="24" height="24" viewBox="0 0 24 24" fill="currentColor" xmlns="http://www.w3.org/2000/svg">
  <path fill-rule="evenodd" clip-rule="evenodd"
    d="M8.70274 3.49994C8.18031 3.49994 7.7568 3.92345 7.7568 4.44588V7.75683H4.44588C3.92345 7.75683 3.49994 8.18034 3.49994 8.70277V20.0541C3.49994 20.5765 3.92345 21 4.44588 21H15.7972C16.3196 21 16.7431 20.5765 16.7431 20.0541V16.7431H20.054C20.5765 16.7431 21 16.3196 21 15.7972V4.44588C21 3.92345 20.5765 3.49994 20.054 3.49994H8.70274ZM16.7431 14.8512H19.1081V5.39182H9.64868V7.75683H15.7972C16.3196 7.75683 16.7431 8.18034 16.7431 8.70277V14.8512ZM5.39182 19.1081V9.64871H14.8512V19.1081H5.39182Z" />
</svg>