<svg width="25" height="24" viewBox="0 0 25 24" fill="none" xmlns="http://www.w3.org/2000/svg">
<path d="M12.5 13.125C13.1213 13.125 13.625 12.6213 13.625 12C13.625 11.3787 13.1213 10.875 12.5 10.875C11.8787 10.875 11.375 11.3787 11.375 12C11.375 12.6213 11.8787 13.125 12.5 13.125Z" fill="#333333"/>
<path d="M6.5 13.125C7.12132 13.125 7.625 12.6213 7.625 12C7.625 11.3787 7.12132 10.875 6.5 10.875C5.87868 10.875 5.375 11.3787 5.375 12C5.375 12.6213 5.87868 13.125 6.5 13.125Z" fill="#333333"/>
<path d="M18.5 13.125C19.1213 13.125 19.625 12.6213 19.625 12C19.625 11.3787 19.1213 10.875 18.5 10.875C17.8787 10.875 17.375 11.3787 17.375 12C17.375 12.6213 17.8787 13.125 18.5 13.125Z" fill="#333333"/>
</svg>
