<svg width="24" height="24" viewBox="0 0 24 24" fill="currentColor" xmlns="http://www.w3.org/2000/svg">
  <path fill-rule="evenodd" clip-rule="evenodd"
    d="M12 2C12.5523 2 13 2.42138 13 2.94118V14.8354L18.0429 9.79253C18.4334 9.402 19.0666 9.402 19.4571 9.79253C19.8476 10.1831 19.8476 10.8162 19.4571 11.2067L12.7071 17.9567C12.5196 18.1443 12.2652 18.2496 12 18.2496C11.7348 18.2496 11.4804 18.1443 11.2929 17.9567L4.54289 11.2067C4.15237 10.8162 4.15237 10.1831 4.54289 9.79253C4.93342 9.402 5.56658 9.402 5.95711 9.79253L11 14.8354V2.94118C11 2.42138 11.4477 2 12 2ZM4.5 19.2496C3.94772 19.2496 3.5 19.6973 3.5 20.2496C3.5 20.8019 3.94772 21.2496 4.5 21.2496H19.5C20.0523 21.2496 20.5 20.8019 20.5 20.2496C20.5 19.6973 20.0523 19.2496 19.5 19.2496H4.5Z" />
</svg>