<svg width="24" height="24" viewBox="0 0 24 24" fill="currentColor" xmlns="http://www.w3.org/2000/svg">
  <path
    d="M9.625 13.25C10.2463 13.25 10.75 12.7463 10.75 12.125C10.75 11.5037 10.2463 11 9.625 11C9.00368 11 8.5 11.5037 8.5 12.125C8.5 12.7463 9.00368 13.25 9.625 13.25Z" />
  <path
    d="M15.25 13.25C15.8713 13.25 16.375 12.7463 16.375 12.125C16.375 11.5037 15.8713 11 15.25 11C14.6287 11 14.125 11.5037 14.125 12.125C14.125 12.7463 14.6287 13.25 15.25 13.25Z" />
  <path
    d="M9.625 7.25C10.2463 7.25 10.75 6.74632 10.75 6.125C10.75 5.50368 10.2463 5 9.625 5C9.00368 5 8.5 5.50368 8.5 6.125C8.5 6.74632 9.00368 7.25 9.625 7.25Z" />
  <path
    d="M15.25 7.25C15.8713 7.25 16.375 6.74632 16.375 6.125C16.375 5.50368 15.8713 5 15.25 5C14.6287 5 14.125 5.50368 14.125 6.125C14.125 6.74632 14.6287 7.25 15.25 7.25Z" />
  <path
    d="M9.625 19.25C10.2463 19.25 10.75 18.7463 10.75 18.125C10.75 17.5037 10.2463 17 9.625 17C9.00368 17 8.5 17.5037 8.5 18.125C8.5 18.7463 9.00368 19.25 9.625 19.25Z" />
  <path
    d="M15.25 19.25C15.8713 19.25 16.375 18.7463 16.375 18.125C16.375 17.5037 15.8713 17 15.25 17C14.6287 17 14.125 17.5037 14.125 18.125C14.125 18.7463 14.6287 19.25 15.25 19.25Z" />
</svg>