<svg width="24" height="24" viewBox="0 0 24 24" fill="currentColor" xmlns="http://www.w3.org/2000/svg">
  <path fill-rule="evenodd" clip-rule="evenodd"
    d="M4.37395 8.18994C5.95776 6.60596 8.44977 5 12 5C15.5502 5 18.0422 6.60596 19.626 8.18994C20.4154 8.97942 20.9844 9.76739 21.3571 10.3595C21.5439 10.6562 21.6827 10.9057 21.7763 11.0843C21.8231 11.1737 21.8587 11.2455 21.8834 11.2969C21.8958 11.3225 21.9054 11.3431 21.9124 11.3582L21.9209 11.3768L21.9236 11.3829L21.9251 11.3861C21.9251 11.3861 21.9254 11.3869 21.1308 11.74C21.9254 12.0932 21.925 12.094 21.925 12.094L21.9246 12.0949L21.9236 12.0972L21.9209 12.1033L21.9124 12.1218C21.9054 12.1369 21.8957 12.1575 21.8834 12.1832C21.8586 12.2345 21.823 12.3064 21.7762 12.3957C21.6827 12.5743 21.5439 12.8238 21.3571 13.1204C20.9843 13.7124 20.4154 14.5002 19.626 15.2895C18.0422 16.8732 15.5502 18.4787 12 18.4787C8.44984 18.4787 5.95785 16.8732 4.37402 15.2895C3.58462 14.5002 3.01567 13.7124 2.64292 13.1204C2.45611 12.8238 2.31735 12.5743 2.22378 12.3957C2.17697 12.3064 2.14137 12.2345 2.11664 12.1832C2.10428 12.1575 2.09462 12.1369 2.08763 12.1218L2.07914 12.1033L2.07638 12.0972L2.07538 12.0949L2.07496 12.094C2.07496 12.094 2.07461 12.0932 2.86924 11.74C2.07458 11.3869 2.07493 11.3861 2.07493 11.3861L2.07535 11.3851L2.07636 11.3829L2.07911 11.3768L2.0876 11.3582C2.09459 11.3431 2.10425 11.3225 2.11661 11.2969C2.14134 11.2455 2.17693 11.1737 2.22375 11.0843C2.31731 10.9057 2.45607 10.6562 2.64287 10.3595C3.01561 9.76739 3.58456 8.97942 4.37395 8.18994ZM2.86924 11.74L2.07493 11.3861C1.97501 11.6109 1.97502 11.8692 2.07496 12.094L2.86924 11.74ZM3.84592 11.74C3.91523 11.8652 4.00455 12.0189 4.11463 12.1937C4.43484 12.7022 4.92571 13.3817 5.60375 14.0596C6.95481 15.4106 9.02819 16.7395 12 16.7395C14.9718 16.7395 17.0452 15.4106 18.3963 14.0596C19.0743 13.3817 19.5652 12.7022 19.8854 12.1937C19.9955 12.0189 20.0848 11.8652 20.1541 11.74C20.0848 11.6147 19.9954 11.4609 19.8853 11.286C19.5651 10.7774 19.0742 10.0978 18.3962 9.41966C17.0451 8.06844 14.9717 6.73919 12 6.73919C9.02826 6.73919 6.95489 8.06844 5.60381 9.41966C4.92577 10.0978 4.43489 10.7774 4.11468 11.286C4.00457 11.4609 3.91524 11.6147 3.84592 11.74ZM21.1308 11.74L21.925 12.094C22.025 11.8692 22.025 11.6109 21.9251 11.3861L21.1308 11.74Z" />
  <path fill-rule="evenodd" clip-rule="evenodd"
    d="M12 9.34863C10.6793 9.34863 9.60864 10.4193 9.60864 11.74C9.60864 13.0607 10.6793 14.1314 12 14.1314C13.3208 14.1314 14.3914 13.0607 14.3914 11.74C14.3914 10.4193 13.3208 9.34863 12 9.34863ZM7.86945 11.74C7.86945 9.45876 9.71877 7.60944 12 7.60944C14.2813 7.60944 16.1306 9.45876 16.1306 11.74C16.1306 14.0213 14.2813 15.8706 12 15.8706C9.71877 15.8706 7.86945 14.0213 7.86945 11.74Z" />
</svg>