<svg width="24" height="24" viewBox="0 0 24 24" fill="currentColor" xmlns="http://www.w3.org/2000/svg">
  <path fill-rule="evenodd" clip-rule="evenodd"
    d="M3.77781 7.37161C3.43074 6.942 2.80112 6.87509 2.37151 7.22217C1.94191 7.56924 1.875 8.19886 2.22207 8.62846C2.6628 9.17399 3.20333 9.7615 3.84965 10.3318L2.12355 13.3215C1.84741 13.7998 2.01128 14.4114 2.48958 14.6875C2.96787 14.9637 3.57946 14.7998 3.8556 14.3215L5.45893 11.5444C6.31108 12.0863 7.28642 12.5599 8.39199 12.8954L7.88534 15.7688C7.78944 16.3127 8.1526 16.8314 8.6965 16.9273C9.24039 17.0232 9.75905 16.66 9.85495 16.1161L10.3491 13.3138C10.8755 13.3815 11.4256 13.418 12 13.418C12.5713 13.418 13.1187 13.3819 13.6425 13.3149L14.1367 16.1173C14.2326 16.6611 14.7512 17.0243 15.2951 16.9284C15.839 16.8325 16.2022 16.3138 16.1063 15.77L15.5999 12.8979C16.707 12.5628 17.6837 12.0891 18.5369 11.5471L20.1302 14.3066C20.4063 14.7849 21.0179 14.9488 21.4962 14.6727C21.9745 14.3965 22.1384 13.7849 21.8622 13.3066L20.1466 10.3351C20.7946 9.76377 21.3363 9.17506 21.7779 8.62849C22.125 8.19888 22.0581 7.56926 21.6285 7.22219C21.1989 6.87512 20.5692 6.94202 20.2222 7.37162C19.7167 7.99733 19.0726 8.67266 18.2765 9.28899C18.2566 9.30317 18.2373 9.31798 18.2188 9.33337C16.7116 10.4841 14.6683 11.418 12 11.418C9.32949 11.418 7.28503 10.4826 5.77752 9.33054C5.75903 9.31521 5.73988 9.30046 5.72007 9.28633C4.92554 8.67072 4.28259 7.99642 3.77781 7.37161Z" />
</svg>