<svg width="24" height="24" viewBox="0 0 24 24" fill="currentColor" xmlns="http://www.w3.org/2000/svg">
  <path fill-rule="evenodd" clip-rule="evenodd"
    d="M5.49927 4V20H18.5V8.66421L13.8358 4H5.49927ZM4.01183 2.51256C4.34002 2.18437 4.78514 2 5.24927 2H14.25C14.5152 2 14.7696 2.10536 14.9571 2.29289L20.2071 7.54289C20.3946 7.73043 20.5 7.98478 20.5 8.25V20.25C20.5 20.4798 20.4547 20.7074 20.3668 20.9197C20.2788 21.132 20.1499 21.3249 19.9874 21.4874C19.8249 21.6499 19.632 21.7788 19.4197 21.8668C19.2074 21.9547 18.9798 22 18.75 22H5.24927C4.78514 22 4.34002 21.8156 4.01183 21.4874C3.68364 21.1593 3.49927 20.7141 3.49927 20.25V3.75C3.49927 3.28587 3.68364 2.84075 4.01183 2.51256Z" />
  <path fill-rule="evenodd" clip-rule="evenodd"
    d="M14.25 2C14.8023 2 15.25 2.44772 15.25 3V7.25H19.5007C20.053 7.25 20.5007 7.69772 20.5007 8.25C20.5007 8.80228 20.053 9.25 19.5007 9.25H14.25C13.6977 9.25 13.25 8.80228 13.25 8.25V3C13.25 2.44772 13.6977 2 14.25 2Z" />
  <path fill-rule="evenodd" clip-rule="evenodd"
    d="M8 12.75C8 12.1977 8.44772 11.75 9 11.75H15C15.5523 11.75 16 12.1977 16 12.75C16 13.3023 15.5523 13.75 15 13.75H9C8.44772 13.75 8 13.3023 8 12.75Z" />
  <path fill-rule="evenodd" clip-rule="evenodd"
    d="M8 15.75C8 15.1977 8.44772 14.75 9 14.75H15C15.5523 14.75 16 15.1977 16 15.75C16 16.3023 15.5523 16.75 15 16.75H9C8.44772 16.75 8 16.3023 8 15.75Z" />
</svg>