<svg width="24" height="24" viewBox="0 0 24 24" fill="currentColor" xmlns="http://www.w3.org/2000/svg">
  <g id="FirstAidKit">
    <g id="Group 8">
      <path id="Vector (Stroke)" fill-rule="evenodd" clip-rule="evenodd"
        d="M4.00073 7.75V19.25H20.0007V7.75H4.00073ZM2.00073 7.5C2.00073 6.5335 2.78423 5.75 3.75073 5.75H20.2507C21.2172 5.75 22.0007 6.5335 22.0007 7.5V19.5C22.0007 20.4665 21.2172 21.25 20.2507 21.25H3.75073C2.78423 21.25 2.00073 20.4665 2.00073 19.5V7.5Z" />
      <path id="Vector (Stroke)_2" fill-rule="evenodd" clip-rule="evenodd"
        d="M7.98223 3.48223C8.45107 3.01339 9.08696 2.75 9.75 2.75H14.25C14.913 2.75 15.5489 3.01339 16.0178 3.48223C16.4866 3.95107 16.75 4.58696 16.75 5.25V6.75C16.75 7.30228 16.3023 7.75 15.75 7.75C15.1977 7.75 14.75 7.30228 14.75 6.75V5.25C14.75 5.11739 14.6973 4.99022 14.6036 4.89645C14.5098 4.80268 14.3826 4.75 14.25 4.75H9.75C9.61739 4.75 9.49022 4.80268 9.39645 4.89645C9.30268 4.99022 9.25 5.11739 9.25 5.25V6.75C9.25 7.30228 8.80228 7.75 8.25 7.75C7.69772 7.75 7.25 7.30228 7.25 6.75V5.25C7.25 4.58696 7.51339 3.95107 7.98223 3.48223Z" />
      <path id="Vector (Stroke)_3" fill-rule="evenodd" clip-rule="evenodd"
        d="M12 9.875C12.5523 9.875 13 10.3227 13 10.875V16.125C13 16.6773 12.5523 17.125 12 17.125C11.4477 17.125 11 16.6773 11 16.125V10.875C11 10.3227 11.4477 9.875 12 9.875Z" />
      <path id="Vector (Stroke)_4" fill-rule="evenodd" clip-rule="evenodd"
        d="M8.375 13.5C8.375 12.9477 8.82272 12.5 9.375 12.5H14.625C15.1773 12.5 15.625 12.9477 15.625 13.5C15.625 14.0523 15.1773 14.5 14.625 14.5H9.375C8.82272 14.5 8.375 14.0523 8.375 13.5Z" />
    </g>
  </g>
</svg>