<svg width="24" height="24" viewBox="0 0 24 24" fill="none" xmlns="http://www.w3.org/2000/svg">
<path fill-rule="evenodd" clip-rule="evenodd" d="M15.0187 2.0684C14.778 1.99816 14.5248 1.98177 14.2771 2.02038C14.0304 2.05885 13.7951 2.15093 13.5879 2.29014L13.5853 2.29185L12.4323 3.06048H11.5679L10.4149 2.29185L10.4124 2.29013C10.2051 2.15092 9.96987 2.05884 9.72317 2.02038C9.47546 1.98177 9.22228 1.99816 8.98161 2.0684L8.98159 2.06834L8.97157 2.07138C8.33148 2.26574 7.71181 2.52189 7.12131 2.83621L7.12127 2.83615L7.11109 2.84172C6.89103 2.96228 6.70029 3.12993 6.55251 3.33272C6.4056 3.53433 6.30474 3.76571 6.25704 4.01052L5.98455 5.37315L5.37325 5.98444L4.01065 6.25692C3.76583 6.30462 3.53444 6.40548 3.33283 6.55239C3.13005 6.70016 2.9624 6.89088 2.84184 7.11094L2.84178 7.11091L2.83634 7.12112C2.52197 7.71163 2.26578 8.33133 2.07139 8.97145L2.07133 8.97143L2.06838 8.98154C1.99815 9.22221 1.98177 9.47539 2.02039 9.72311C2.05886 9.96981 2.15095 10.2051 2.29016 10.4123L2.29188 10.4149L3.0605 11.5678V12.4322L2.29185 13.5852L2.29011 13.5878C2.15092 13.7951 2.05885 14.0303 2.02039 14.277C1.98177 14.5247 1.99816 14.7779 2.0684 15.0185L2.06834 15.0185L2.07138 15.0285C2.26571 15.6687 2.52187 16.2884 2.83622 16.8789L2.83616 16.8789L2.84176 16.8892C2.96231 17.1092 3.12996 17.2999 3.33273 17.4477C3.53435 17.5946 3.76575 17.6954 4.01059 17.7431L5.37324 18.0157L5.98445 18.6269L6.25612 19.9853L6.25696 19.9897C6.30466 20.2345 6.4055 20.4658 6.55239 20.6674C6.70015 20.8702 6.89086 21.0378 7.1109 21.1584L7.11087 21.1585L7.12112 21.1639C7.71163 21.4783 8.33133 21.7345 8.97147 21.9288L8.97145 21.9289L8.98151 21.9318C9.22216 22.002 9.47532 22.0184 9.72302 21.9798C9.96979 21.9413 10.2051 21.8492 10.4124 21.7099L10.4147 21.7083L11.5678 20.9397H12.4322L13.5853 21.7084L13.5879 21.7101C13.7952 21.8493 14.0304 21.9414 14.2771 21.9798C14.5248 22.0185 14.778 22.0021 15.0187 21.9318L15.0187 21.9319L15.0287 21.9288C15.6688 21.7345 16.2884 21.4784 16.8789 21.164L16.879 21.1641L16.8892 21.1585C17.1092 21.0379 17.2999 20.8703 17.4477 20.6675C17.5946 20.4659 17.6954 20.2346 17.7431 19.9898L17.744 19.9855L18.0157 18.627L18.6269 18.0157L19.9853 17.744L19.9896 17.7432C20.2344 17.6955 20.4658 17.5947 20.6674 17.4477C20.8702 17.3 21.0379 17.1093 21.1584 16.8892L21.1585 16.8892L21.1639 16.879C21.4783 16.2886 21.7345 15.6689 21.9289 15.0288L21.9289 15.0288L21.9319 15.0187C22.0021 14.778 22.0185 14.5248 21.9799 14.2771C21.9414 14.0303 21.8492 13.795 21.71 13.5877L21.7084 13.5854L20.9397 12.4323V11.5679L21.7084 10.4149L21.7102 10.4122C21.8493 10.205 21.9414 9.96976 21.9799 9.72311C22.0185 9.47539 22.0021 9.22221 21.9319 8.98153L21.9319 8.98151L21.9289 8.97143C21.7345 8.33133 21.4783 7.71166 21.1639 7.12118L21.164 7.12114L21.1584 7.11101C21.0379 6.89097 20.8702 6.70026 20.6674 6.55249C20.4659 6.40559 20.2345 6.30474 19.9897 6.25703L19.9854 6.25619L18.627 5.98446L18.0158 5.37323L17.7432 4.01049C17.6955 3.76568 17.5947 3.53431 17.4477 3.33271C17.3 3.12993 17.1092 2.96228 16.8892 2.84173L16.8892 2.84167L16.879 2.83622C16.2885 2.52189 15.6688 2.26574 15.0287 2.07138L15.0287 2.07133L15.0187 2.0684ZM13.261 4.83105L14.5756 3.95464C15.0204 4.09631 15.4526 4.27487 15.8677 4.48847L16.1778 6.03924C16.2153 6.22633 16.3072 6.39816 16.4421 6.53307L17.4672 7.55811C17.6021 7.69302 17.7739 7.78498 17.961 7.8224L19.5117 8.13257C19.7253 8.5476 19.9039 8.97974 20.0456 9.4245L19.1691 10.7392C19.0633 10.898 19.0068 11.0845 19.0068 11.2753V12.7249C19.0068 12.9157 19.0633 13.1023 19.1691 13.261L20.0456 14.5757C19.9039 15.0205 19.7253 15.4526 19.5117 15.8676L17.961 16.1777C17.7738 16.2151 17.602 16.3071 17.4671 16.4421L16.442 17.4672C16.3071 17.6021 16.2152 17.7739 16.1777 17.961L15.8676 19.5118C15.4525 19.7254 15.0204 19.9039 14.5756 20.0456L13.261 19.1691C13.1022 19.0633 12.9157 19.0068 12.7249 19.0068H11.2752C11.0844 19.0068 10.8979 19.0633 10.7391 19.1691L9.42442 20.0455C8.97967 19.9039 8.54754 19.7253 8.13253 19.5117L7.82242 17.9609C7.78501 17.7738 7.69305 17.602 7.55812 17.4671L6.53308 16.442C6.39817 16.3071 6.22634 16.2152 6.03925 16.1777L4.48845 15.8676C4.27485 15.4525 4.09629 15.0203 3.95465 14.5756L4.83106 13.2609C4.93689 13.1022 4.99337 12.9157 4.99337 12.7249V11.2752C4.99337 11.0844 4.93689 10.8979 4.83106 10.7391L3.95465 9.42449C4.09633 8.97972 4.27492 8.54755 4.48854 8.1325L6.03922 7.82241C6.22632 7.785 6.39816 7.69303 6.53308 7.55811L7.55821 6.53298C7.69313 6.39806 7.7851 6.22622 7.82251 6.03912L8.1326 4.48846C8.54766 4.27487 8.97983 4.09631 9.42461 3.95464L10.7392 4.83105C10.898 4.93688 11.0845 4.99336 11.2753 4.99336H12.725C12.9158 4.99336 13.1023 4.93688 13.261 4.83105ZM7.89276 12.0001C7.89276 9.73163 9.73169 7.89271 12.0001 7.89271C14.2686 7.89271 16.1075 9.73163 16.1075 12.0001C16.1075 14.2685 14.2686 16.1074 12.0001 16.1074C9.73169 16.1074 7.89276 14.2685 7.89276 12.0001ZM12.0001 5.95983C8.66419 5.95983 5.95989 8.66413 5.95989 12.0001C5.95989 15.336 8.66419 18.0403 12.0001 18.0403C15.336 18.0403 18.0404 15.336 18.0404 12.0001C18.0404 8.66413 15.336 5.95983 12.0001 5.95983Z" fill="#333333"/>
</svg>
