<svg width="18" height="20" viewBox="0 0 18 20" fill="currentColor" xmlns="http://www.w3.org/2000/svg">
  <g id="Group 9">
    <path id="Vector (Stroke)" fill-rule="evenodd" clip-rule="evenodd"
      d="M6.89037 2.42014C3.91419 3.81171 3.31376 6.58332 3.36545 7.70305C3.36618 7.71868 3.36654 7.73433 3.36654 7.74997L3.36653 8.49998C3.36653 11.6711 2.77436 13.7172 2.13353 15H15.8666C15.2261 13.7173 14.6342 11.6712 14.6342 8.49997V7.8347C14.6342 4.64328 12.1334 2.02381 9.04383 2.00011C8.30586 1.99553 7.57423 2.13826 6.89037 2.42014ZM6.12793 0.576521C7.05722 0.189695 8.05259 -0.00619303 9.05664 0.000149221L9.05785 0.00015685C13.2648 0.0319748 16.6002 3.58246 16.6002 7.8347V8.49997C16.6002 11.7167 17.2608 13.4843 17.7659 14.3687L16.9159 14.8711L17.7641 14.3656C17.917 14.6312 17.9984 14.933 18 15.2407C18.0016 15.5485 17.9234 15.8512 17.7733 16.1183C17.6232 16.3855 17.4066 16.6077 17.1451 16.7625C16.8837 16.9173 16.5868 16.9992 16.2843 17L16.2818 17H1.71825L1.71572 17C1.41319 16.9992 1.11623 16.9173 0.854778 16.7624C0.59333 16.6076 0.376638 16.3854 0.226566 16.1182C0.0764954 15.8509 -0.00164487 15.5482 2.6252e-05 15.2404C0.00169327 14.9334 0.0827193 14.6323 0.234953 14.3672C0.740206 13.4825 1.40056 11.7151 1.40056 8.49997L1.40056 7.77185C1.33119 6.05256 2.20249 2.39794 6.09211 0.592285C6.10394 0.586789 6.11589 0.581534 6.12793 0.576521Z" />
    <path id="Vector (Stroke)_2" fill-rule="evenodd" clip-rule="evenodd"
      d="M6 15C6.55228 15 7 15.3893 7 15.8696V16.5217C7 16.983 7.21071 17.4253 7.58579 17.7515C7.96086 18.0776 8.46957 18.2609 9 18.2609C9.53043 18.2609 10.0391 18.0776 10.4142 17.7515C10.7893 17.4253 11 16.983 11 16.5217V15.8696C11 15.3893 11.4477 15 12 15C12.5523 15 13 15.3893 13 15.8696V16.5217C13 17.4442 12.5786 18.3289 11.8284 18.9812C11.0783 19.6335 10.0609 20 9 20C7.93913 20 6.92172 19.6335 6.17157 18.9812C5.42143 18.3289 5 17.4442 5 16.5217V15.8696C5 15.3893 5.44772 15 6 15Z" />
  </g>
</svg>