<svg width="24" height="24" viewBox="0 0 24 24" fill="currentColor" xmlns="http://www.w3.org/2000/svg">
  <path fill-rule="evenodd" clip-rule="evenodd"
    d="M10.854 3.43154C11.1674 3.15388 11.5758 3.00001 11.9994 3C12.423 2.99999 12.8314 3.15382 13.1449 3.43147L20.4427 9.8959C20.6182 10.0514 20.7585 10.2409 20.8545 10.4523C20.9504 10.6637 21 10.8923 21 11.1235V19.341C21 19.5589 20.956 19.7746 20.8704 19.9759C20.7848 20.1772 20.6593 20.3601 20.5012 20.5142C20.3431 20.6682 20.1554 20.7904 19.9487 20.8738C19.7421 20.9571 19.5207 21 19.2971 21L14.9182 20.9994C14.4666 20.9994 14.0336 20.8246 13.7143 20.5134C13.395 20.2023 13.2157 19.7804 13.2157 19.3404V15.3113H10.7832V19.3404C10.7832 19.7804 10.6039 20.2023 10.2846 20.5134C9.96534 20.8246 9.53231 20.9994 9.08077 20.9994L4.70292 21C4.4793 21 4.25786 20.9571 4.05125 20.8738C3.84465 20.7904 3.65692 20.6682 3.49879 20.5142C3.34065 20.3601 3.21521 20.1772 3.12963 19.9759C3.04405 19.7746 3 19.5589 3 19.341V11.1234C3 10.8923 3.04957 10.6637 3.14553 10.4523C3.24149 10.2409 3.38172 10.0514 3.55723 9.89594L10.854 3.43154ZM11.9995 4.97934L4.94595 11.2283V19.1039L8.8373 19.1034V15.0743C8.8373 14.6343 9.0167 14.2123 9.33601 13.9011C9.65533 13.59 10.0884 13.4152 10.54 13.4152H13.4589C13.9105 13.4152 14.3436 13.59 14.6629 13.9011C14.9822 14.2123 15.1616 14.6343 15.1616 15.0743V19.1034L19.0541 19.1039V11.2283L11.9995 4.97934ZM12.1628 4.83464C12.1627 4.83473 12.1629 4.83455 12.1628 4.83464V4.83464Z" />
</svg>