<svg width="24" height="24" viewBox="0 0 24 24" fill="none" xmlns="http://www.w3.org/2000/svg">
<path fill-rule="evenodd" clip-rule="evenodd" d="M15.0903 3.95707C13.8206 3.82836 12.5454 4.14199 11.4802 4.84495C10.4151 5.5479 9.62533 6.59706 9.24444 7.81509C8.86568 9.02631 8.91433 10.3306 9.38187 11.51C9.53411 11.8661 9.45956 12.2878 9.17675 12.5706L3.92882 17.8185V20.0712H5.61653V18.8657C5.61653 18.333 6.04831 17.9013 6.58094 17.9013H7.78645V16.6958C7.78645 16.1631 8.21823 15.7313 8.75086 15.7313H10.5213L11.4294 14.8233C11.7115 14.5411 12.1323 14.466 12.4886 14.6175C13.6683 15.0856 14.9732 15.1345 16.1849 14.7556C17.4029 14.3747 18.4521 13.5849 19.155 12.5198C19.858 11.4546 20.1716 10.1794 20.0429 8.90975C19.9142 7.64006 19.3511 6.45376 18.4487 5.55135C17.5463 4.64894 16.36 4.08579 15.0903 3.95707ZM12.3648 16.6156C13.794 17.049 15.3257 17.0452 16.7606 16.5965C18.4027 16.083 19.8172 15.0182 20.7649 13.5822C21.7126 12.1462 22.1354 10.427 21.9619 8.71523C21.7884 7.00345 21.0292 5.40408 19.8125 4.18747C18.5959 2.97086 16.9966 2.21162 15.2848 2.03809C13.573 1.86457 11.8538 2.28739 10.4178 3.23511C8.9818 4.18282 7.91705 5.59729 7.40354 7.23942C6.95484 8.67426 6.95105 10.206 7.38436 11.6352L2.28247 16.7371C2.10161 16.918 2 17.1633 2 17.4191V21.0356C2 21.5682 2.43178 22 2.96441 22H6.58094C7.11357 22 7.54535 21.5682 7.54535 21.0356V19.8301H8.75086C9.28349 19.8301 9.71527 19.3983 9.71527 18.8657V17.6602H10.9208C11.1766 17.6602 11.4219 17.5586 11.6027 17.3777L12.3648 16.6156Z" fill="#333333"/>
<path d="M16 9C16.5523 9 17 8.55228 17 8C17 7.44772 16.5523 7 16 7C15.4477 7 15 7.44772 15 8C15 8.55228 15.4477 9 16 9Z" fill="#333333"/>
</svg>
