<svg width="24" height="24" viewBox="0 0 24 24" fill="none" xmlns="http://www.w3.org/2000/svg">
<path fill-rule="evenodd" clip-rule="evenodd" d="M16.6122 5C17.0228 4.9999 17.4293 5.08069 17.8085 5.23774C18.1878 5.39479 18.5324 5.62502 18.8227 5.91529C19.113 6.20556 19.3432 6.55018 19.5002 6.92945C19.6573 7.30872 19.7381 7.71522 19.738 8.12573C19.7379 8.53623 19.6569 8.94269 19.4997 9.32189C19.3425 9.70109 19.1117 10.0459 18.8213 10.3361L16.1697 12.9877C15.8795 13.2779 15.535 13.5081 15.1559 13.6651C14.7767 13.8222 14.3703 13.903 13.96 13.903C13.5496 13.903 13.1432 13.8222 12.7641 13.6651C12.3849 13.5081 12.0404 13.2779 11.7503 12.9877C11.3597 12.5972 10.7266 12.5972 10.336 12.9877C9.94552 13.3782 9.94552 14.0114 10.336 14.4019C10.8119 14.8778 11.3769 15.2553 11.9987 15.5129C12.6205 15.7704 13.2869 15.903 13.96 15.903C14.633 15.903 15.2994 15.7704 15.9212 15.5129C16.543 15.2553 17.108 14.8778 17.5839 14.4019L20.2355 11.7503C20.7116 11.2745 21.0894 10.7097 21.3472 10.0879C21.605 9.46602 21.7378 8.79942 21.738 8.12619C21.7381 7.45297 21.6056 6.78631 21.3481 6.1643C21.0905 5.54229 20.7129 4.97712 20.2369 4.50108C19.7609 4.02504 19.1957 3.64745 18.5737 3.38989C17.9517 3.13233 17.285 2.99984 16.6118 3C15.9386 3.00016 15.272 3.13295 14.6501 3.3908C14.0283 3.64859 13.4631 4.02666 12.9874 4.50277L11.1315 6.35859C10.741 6.74912 10.741 7.38228 11.1315 7.77281C11.5221 8.16333 12.1552 8.16333 12.5458 7.77281L14.4022 5.91632C14.6924 5.62592 15.0369 5.39552 15.4161 5.23829C15.7953 5.08107 16.2017 5.0001 16.6122 5ZM9.58212 11.0729C9.96127 10.9159 10.3676 10.835 10.778 10.835C11.1884 10.835 11.5948 10.9159 11.9739 11.0729C12.353 11.2299 12.6975 11.4601 12.9877 11.7503C13.3782 12.1408 14.0114 12.1408 14.4019 11.7503C14.7925 11.3598 14.7925 10.7266 14.4019 10.3361C13.926 9.8602 13.3611 9.4827 12.7393 9.22514C12.1175 8.96758 11.451 8.83502 10.778 8.83502C10.105 8.83502 9.43855 8.96758 8.81676 9.22514C8.19496 9.4827 7.62999 9.8602 7.15409 10.3361L4.50244 12.9878C4.02633 13.4635 3.64859 14.0284 3.3908 14.6501C3.13295 15.272 3.00016 15.9386 3 16.6118C2.99984 17.2851 3.13233 17.9517 3.38989 18.5737C3.64745 19.1957 4.02504 19.7609 4.50108 20.237C4.97712 20.713 5.54229 21.0906 6.1643 21.3481C6.78631 21.6057 7.45297 21.7382 8.12619 21.738C8.79942 21.7379 9.46602 21.6051 10.0879 21.3472C10.7098 21.0894 11.2748 20.7115 11.7506 20.2353L13.6064 18.3794C13.997 17.9889 13.997 17.3557 13.6064 16.9652C13.2159 16.5747 12.5827 16.5747 12.1922 16.9652L10.3357 18.8217C10.0456 19.1121 9.70109 19.3425 9.32189 19.4997C8.94269 19.657 8.53623 19.7379 8.12573 19.738C7.71522 19.7381 7.30872 19.6573 6.92945 19.5003C6.55018 19.3432 6.20556 19.113 5.91529 18.8227C5.62502 18.5325 5.39479 18.1879 5.23774 17.8086C5.08069 17.4293 4.9999 17.0228 5 16.6123C5.0001 16.2018 5.08107 15.7953 5.23829 15.4161C5.39552 15.0369 5.62625 14.6921 5.91665 14.402L8.5683 11.7503C8.85848 11.4601 9.20298 11.2299 9.58212 11.0729Z" fill="#333333"/>
</svg>
