<svg width="24" height="24" viewBox="0 0 24 24" fill="none" xmlns="http://www.w3.org/2000/svg">
<path fill-rule="evenodd" clip-rule="evenodd" d="M10.3201 4.69562C10.7655 4.25022 11.3696 4 11.9995 4C12.6293 4 13.2334 4.25022 13.6788 4.69562C14.1242 5.14102 14.3745 5.74511 14.3745 6.375V8.75H9.62445V6.375C9.62445 5.74511 9.87467 5.14102 10.3201 4.69562ZM7.62445 8.75V6.375C7.62445 5.21468 8.08539 4.10188 8.90586 3.28141C9.72633 2.46094 10.8391 2 11.9995 2C13.1598 2 14.2726 2.46094 15.093 3.28141C15.9135 4.10188 16.3745 5.21468 16.3745 6.375V8.75H19.4995C20.4659 8.75 21.2495 9.5335 21.2495 10.5V21C21.2495 21.9665 20.4659 22.75 19.4995 22.75H4.49945C3.53295 22.75 2.74945 21.9665 2.74945 21V10.5C2.74945 9.5335 3.53295 8.75 4.49945 8.75H7.62445ZM15.3745 10.75H8.62445H4.74945V20.75H19.2495V10.75H15.3745Z" fill="#333333"/>
</svg>
