<svg width="24" height="24" viewBox="0 0 24 24" fill="none" xmlns="http://www.w3.org/2000/svg">
<path fill-rule="evenodd" clip-rule="evenodd" d="M10.3201 4.69562C10.7655 4.25022 11.3696 4 11.9995 4C12.6293 4 13.2334 4.25022 13.6788 4.69562C14.1242 5.14102 14.3745 5.74511 14.3745 6.375C14.3745 6.92728 14.8222 7.375 15.3745 7.375C15.9267 7.375 16.3745 6.92728 16.3745 6.375C16.3745 5.21468 15.9135 4.10188 15.093 3.28141C14.2726 2.46094 13.1598 2 11.9995 2C10.8391 2 9.72633 2.46094 8.90586 3.28141C8.08539 4.10188 7.62445 5.21468 7.62445 6.375V8.75H4.49945C3.53295 8.75 2.74945 9.5335 2.74945 10.5V21C2.74945 21.9665 3.53295 22.75 4.49945 22.75H19.4995C20.4659 22.75 21.2495 21.9665 21.2495 21V10.5C21.2495 9.5335 20.4659 8.75 19.4995 8.75H9.62445V6.375C9.62445 5.74511 9.87467 5.14102 10.3201 4.69562ZM8.62445 10.75H4.74945V20.75H19.2495V10.75H8.62445Z" fill="#333333"/>
</svg>
