<svg width="20" height="20" viewBox="0 0 20 20" fill="none" xmlns="http://www.w3.org/2000/svg">
<path fill-rule="evenodd" clip-rule="evenodd" d="M2 8.875C2 5.07804 5.07804 2 8.875 2C12.672 2 15.75 5.07804 15.75 8.875C15.75 12.672 12.672 15.75 8.875 15.75C5.07804 15.75 2 12.672 2 8.875ZM8.875 0C3.97347 0 0 3.97347 0 8.875C0 13.7765 3.97347 17.75 8.875 17.75C10.9653 17.75 12.8868 17.0273 14.4034 15.8182L18.2923 19.7072C18.6829 20.0977 19.316 20.0977 19.7066 19.7072C20.0971 19.3167 20.0971 18.6835 19.7066 18.293L15.8177 14.4041C17.0271 12.8874 17.75 10.9656 17.75 8.875C17.75 3.97347 13.7765 0 8.875 0Z" fill="#333333"/>
</svg>
