<svg width="24" height="24" viewBox="0 0 24 24" fill="none" xmlns="http://www.w3.org/2000/svg">
<path fill-rule="evenodd" clip-rule="evenodd" d="M7.67417 5.55649C8.82145 4.40921 10.3775 3.76468 12 3.76468C13.6225 3.76468 15.1785 4.40921 16.3258 5.55649C17.4731 6.70378 18.1176 8.25982 18.1176 9.88232C18.1176 12.7199 16.53 15.3267 14.8192 17.2942C13.9753 18.2647 13.1289 19.0478 12.4934 19.588C12.3088 19.7449 12.1425 19.8809 12 19.9944C11.8575 19.8809 11.6912 19.7449 11.5066 19.588C10.8711 19.0478 10.0247 18.2647 9.18081 17.2942C7.46997 15.3267 5.88235 12.7199 5.88235 9.88232C5.88235 8.25982 6.52689 6.70378 7.67417 5.55649ZM11.4597 21.9471C11.46 21.9473 11.4603 21.9475 12 21.1764L12.5397 21.9475C12.2157 22.1743 11.7838 22.174 11.4597 21.9471ZM11.4597 21.9471L12 21.1764C12.5397 21.9475 12.5407 21.9468 12.541 21.9466L12.5428 21.9453L12.5485 21.9413L12.5674 21.9279C12.5833 21.9165 12.6057 21.9004 12.6342 21.8796C12.6912 21.838 12.7726 21.7777 12.8748 21.6995C13.0793 21.5432 13.3678 21.3152 13.7125 21.0222C14.4005 20.4375 15.3188 19.5882 16.2396 18.5293C18.0582 16.4379 20 13.3977 20 9.88232C20 7.76059 19.1571 5.72576 17.6569 4.22547C16.1566 2.72518 14.1217 1.88232 12 1.88232C9.87827 1.88232 7.84344 2.72518 6.34315 4.22547C4.84285 5.72576 4 7.76059 4 9.88232C4 13.3977 5.94179 16.4379 7.76037 18.5293C8.68116 19.5882 9.59953 20.4375 10.2875 21.0222C10.6322 21.3152 10.9207 21.5432 11.1252 21.6995C11.2274 21.7777 11.3088 21.838 11.3658 21.8796C11.3943 21.9004 11.4167 21.9165 11.4326 21.9279L11.4515 21.9413L11.4572 21.9453L11.4597 21.9471ZM10.1176 9.88232C10.1176 8.84273 10.9604 7.99997 12 7.99997C13.0396 7.99997 13.8824 8.84273 13.8824 9.88232C13.8824 10.9219 13.0396 11.7647 12 11.7647C10.9604 11.7647 10.1176 10.9219 10.1176 9.88232ZM12 6.11762C9.92081 6.11762 8.23529 7.80313 8.23529 9.88232C8.23529 11.9615 9.92081 13.647 12 13.647C14.0792 13.647 15.7647 11.9615 15.7647 9.88232C15.7647 7.80313 14.0792 6.11762 12 6.11762Z" fill="#333333"/>
</svg>
