<svg width="20" height="14" viewBox="0 0 20 14" fill="none" xmlns="http://www.w3.org/2000/svg">
<path fill-rule="evenodd" clip-rule="evenodd" d="M0.75 1C0.75 0.447715 1.19772 0 1.75 0H18.25C18.8023 0 19.25 0.447715 19.25 1C19.25 1.55228 18.8023 2 18.25 2H1.75C1.19772 2 0.75 1.55228 0.75 1ZM7 5C7 4.44772 7.44772 4 8 4H18C18.5523 4 19 4.44772 19 5C19 5.55228 18.5523 6 18 6H8C7.44772 6 7 5.55228 7 5ZM8 8C7.44772 8 7 8.44771 7 9C7 9.55229 7.44772 10 8 10H18C18.5523 10 19 9.55229 19 9C19 8.44771 18.5523 8 18 8H8ZM0.75061 13C0.75061 12.4477 1.19833 12 1.75061 12H18.25C18.8023 12 19.25 12.4477 19.25 13C19.25 13.5523 18.8023 14 18.25 14H1.75061C1.19833 14 0.75061 13.5523 0.75061 13ZM4.70711 5.70711C5.09763 5.31658 5.09763 4.68342 4.70711 4.29289C4.31658 3.90237 3.68342 3.90237 3.29289 4.29289L1.29289 6.29289C0.902369 6.68342 0.902369 7.31658 1.29289 7.70711L3.29289 9.70711C3.68342 10.0976 4.31658 10.0976 4.70711 9.70711C5.09763 9.31658 5.09763 8.68342 4.70711 8.29289L3.41421 7L4.70711 5.70711Z" fill="#333333"/>
</svg>
