<svg width="20" height="14" viewBox="0 0 20 14" fill="none" xmlns="http://www.w3.org/2000/svg">
<path fill-rule="evenodd" clip-rule="evenodd" d="M0.75 1C0.75 0.447715 1.19772 0 1.75 0H18.25C18.8023 0 19.25 0.447715 19.25 1C19.25 1.55228 18.8023 2 18.25 2H1.75C1.19772 2 0.75 1.55228 0.75 1ZM1 5C1 4.44772 1.44772 4 2 4H12C12.5523 4 13 4.44772 13 5C13 5.55228 12.5523 6 12 6H2C1.44772 6 1 5.55228 1 5ZM2 8C1.44772 8 1 8.44771 1 9C1 9.55229 1.44772 10 2 10H12C12.5523 10 13 9.55229 13 9C13 8.44771 12.5523 8 12 8H2ZM0.75061 13C0.75061 12.4477 1.19833 12 1.75061 12H18.25C18.8023 12 19.25 12.4477 19.25 13C19.25 13.5523 18.8023 14 18.25 14H1.75061C1.19833 14 0.75061 13.5523 0.75061 13ZM16.5858 7L15.2929 8.29289C14.9024 8.68342 14.9024 9.31658 15.2929 9.70711C15.6834 10.0976 16.3166 10.0976 16.7071 9.70711L18.7071 7.70711C19.0976 7.31658 19.0976 6.68342 18.7071 6.29289L16.7071 4.29289C16.3166 3.90237 15.6834 3.90237 15.2929 4.29289C14.9024 4.68342 14.9024 5.31658 15.2929 5.70711L16.5858 7Z" fill="#333333"/>
</svg>
