<svg width="24" height="24" viewBox="0 0 24 24" fill="currentColor" xmlns="http://www.w3.org/2000/svg">
  <g id="Newspaper">
    <g id="Group 6">
      <path id="Vector (Stroke)" fill-rule="evenodd" clip-rule="evenodd"
        d="M8.06744 8.94386C8.06744 8.44742 8.46988 8.04498 8.96632 8.04498H17.7303C18.2268 8.04498 18.6292 8.44742 18.6292 8.94386C18.6292 9.44029 18.2268 9.84273 17.7303 9.84273H8.96632C8.46988 9.84273 8.06744 9.44029 8.06744 8.94386Z" />
      <path id="Vector (Stroke)_2" fill-rule="evenodd" clip-rule="evenodd"
        d="M8.06744 11.6405C8.06744 11.144 8.46988 10.7416 8.96632 10.7416H17.7303C18.2268 10.7416 18.6292 11.144 18.6292 11.6405C18.6292 12.1369 18.2268 12.5393 17.7303 12.5393H8.96632C8.46988 12.5393 8.06744 12.1369 8.06744 11.6405Z" />
      <path id="Vector (Stroke)_3" fill-rule="evenodd" clip-rule="evenodd"
        d="M8.06744 14.337C8.06744 13.8406 8.46988 13.4382 8.96632 13.4382H17.7303C18.2268 13.4382 18.6292 13.8406 18.6292 14.337C18.6292 14.8335 18.2268 15.2359 17.7303 15.2359H8.96632C8.46988 15.2359 8.06744 14.8335 8.06744 14.337Z" />
      <path id="Vector (Stroke)_4" fill-rule="evenodd" clip-rule="evenodd"
        d="M6.49442 5.79775V17.0337C6.49442 17.1858 6.479 17.3363 6.44902 17.4831H19.7528C19.872 17.4831 19.9863 17.4358 20.0706 17.3515C20.1549 17.2672 20.2023 17.1529 20.2023 17.0337V5.79775H6.49442ZM4.24723 19.2809H19.7528C20.3488 19.2809 20.9204 19.0441 21.3418 18.6227C21.7632 18.2012 22 17.6297 22 17.0337V5.57303C22 5.15584 21.8343 4.75573 21.5393 4.46073C21.2443 4.16573 20.8442 4 20.427 4H6.2697C5.85251 4 5.4524 4.16573 5.1574 4.46073C4.8624 4.75573 4.69667 5.15584 4.69667 5.57303V17.0337C4.69667 17.1529 4.64932 17.2672 4.56503 17.3515C4.48075 17.4358 4.36643 17.4831 4.24723 17.4831C3.7508 17.4831 3.34836 17.8856 3.34836 18.382C3.34836 18.8784 3.7508 19.2809 4.24723 19.2809Z" />
      <path id="Vector (Stroke)_5" fill-rule="evenodd" clip-rule="evenodd"
        d="M2.89887 6.69659C3.39531 6.69659 3.79775 7.09903 3.79775 7.59547V17.0336C3.79775 17.1528 3.8451 17.2672 3.92939 17.3514C4.01367 17.4357 4.12799 17.4831 4.24719 17.4831C4.74362 17.4831 5.14606 17.8855 5.14606 18.382C5.14606 18.8784 4.74362 19.2808 4.24719 19.2808C3.65119 19.2808 3.07961 19.0441 2.65819 18.6226C2.23676 18.2012 2 17.6296 2 17.0336V7.59547C2 7.09903 2.40244 6.69659 2.89887 6.69659Z" />
    </g>
  </g>
</svg>