<svg width="24" height="24" viewBox="0 0 24 24" fill="none" xmlns="http://www.w3.org/2000/svg">
<path fill-rule="evenodd" clip-rule="evenodd" d="M15.2184 2.30448C15.7037 2.10346 16.2238 2 16.7491 2C17.2744 2 17.7945 2.10346 18.2798 2.30448C18.7651 2.50549 19.2061 2.80012 19.5775 3.17155C19.9489 3.54298 20.2436 3.98392 20.4446 4.46922C20.6456 4.95451 20.7491 5.47465 20.7491 5.99992C20.7491 6.5252 20.6456 7.04533 20.4446 7.53063C20.244 8.0148 19.9503 8.45483 19.5801 8.82572L10.2676 18.2679C9.79881 18.7367 9.16292 19.0001 8.49989 19.0001C7.83685 19.0001 7.20098 18.7367 6.73215 18.2679C6.26331 17.799 5.99992 17.1631 5.99992 16.5001C5.99992 15.8386 6.26208 15.2042 6.72887 14.7357L14.5363 6.79863C14.9236 6.4049 15.5567 6.39969 15.9504 6.78698C16.3442 7.17428 16.3494 7.80742 15.9621 8.20115L8.14638 16.1466C8.05262 16.2404 7.99992 16.3675 7.99992 16.5001C7.99992 16.6327 8.0526 16.7599 8.14636 16.8536C8.24012 16.9474 8.36729 17.0001 8.49989 17.0001C8.63164 17.0001 8.75803 16.9481 8.85162 16.8554L18.1633 7.41407C18.349 7.22836 18.4963 7.00791 18.5968 6.76526C18.6973 6.52262 18.7491 6.26256 18.7491 5.99992C18.7491 5.73729 18.6973 5.47723 18.5968 5.23459C18.4963 4.99195 18.349 4.77147 18.1633 4.58576C17.9776 4.40005 17.7571 4.25274 17.5145 4.15224C17.2718 4.05173 17.0118 4 16.7491 4C16.4865 4 16.2264 4.05173 15.9838 4.15224C15.7421 4.25234 15.5224 4.39887 15.3372 4.58353L6.02511 14.0253C5.36875 14.6817 5 15.5719 5 16.5001C5 17.4283 5.36874 18.3186 6.02509 18.9749C6.68145 19.6313 7.57166 20 8.49989 20C9.42811 20 10.3183 19.6313 10.9747 18.9749L18.6674 11.2922C19.0582 10.9019 19.6914 10.9023 20.0816 11.2931C20.4719 11.6839 20.4715 12.3171 20.0807 12.7073L12.3889 20.3891C11.3575 21.4206 9.95855 22 8.49989 22C7.04123 22 5.64231 21.4206 4.61088 20.3891C3.57945 19.3577 3 17.9588 3 16.5001C3 15.0427 3.57849 13.6449 4.60831 12.6137L13.9207 3.17153C14.2922 2.80011 14.7331 2.50549 15.2184 2.30448Z" fill="#333333"/>
</svg>
