<svg width="24" height="24" viewBox="0 0 24 24" fill="currentColor" xmlns="http://www.w3.org/2000/svg">
  <path fill-rule="evenodd" clip-rule="evenodd"
    d="M12.973 3.97297C12.973 3.43561 12.5374 3 12 3C11.4626 3 11.027 3.43561 11.027 3.97297V11.027H3.97297C3.43561 11.027 3 11.4626 3 12C3 12.5374 3.43561 12.973 3.97297 12.973H11.027V20.027C11.027 20.5644 11.4626 21 12 21C12.5374 21 12.973 20.5644 12.973 20.027V12.973H20.027C20.5644 12.973 21 12.5374 21 12C21 11.4626 20.5644 11.027 20.027 11.027H12.973V3.97297Z" />
</svg>