<svg width="24" height="24" viewBox="0 0 24 24" fill="none" xmlns="http://www.w3.org/2000/svg">
<path fill-rule="evenodd" clip-rule="evenodd" d="M12 4C7.58172 4 4 7.58172 4 12C4 16.4183 7.58172 20 12 20C16.4183 20 20 16.4183 20 12C20 7.58172 16.4183 4 12 4ZM2 12C2 6.47715 6.47715 2 12 2C17.5228 2 22 6.47715 22 12C22 17.5228 17.5228 22 12 22C6.47715 22 2 17.5228 2 12Z" fill="#333333"/>
<path fill-rule="evenodd" clip-rule="evenodd" d="M13 8.25C13 7.69772 12.5523 7.25 12 7.25C11.4477 7.25 11 7.69772 11 8.25V11H8.25C7.69772 11 7.25 11.4477 7.25 12C7.25 12.5523 7.69772 13 8.25 13H11V15.75C11 16.3023 11.4477 16.75 12 16.75C12.5523 16.75 13 16.3023 13 15.75V13H15.75C16.3023 13 16.75 12.5523 16.75 12C16.75 11.4477 16.3023 11 15.75 11H13V8.25Z" fill="#333333"/>
</svg>
