<svg width="24" height="24" viewBox="0 0 24 24" fill="currentColor" xmlns="http://www.w3.org/2000/svg">
  <path fill-rule="evenodd" clip-rule="evenodd"
    d="M6.14436 3C5.62119 3 5.19707 3.42411 5.19707 3.94728V6.55231H4.48662C3.18612 6.55231 2 7.54263 2 8.92052V16.0252C2 16.5483 2.42411 16.9724 2.94728 16.9724H5.19709V19.9327C5.19709 20.4559 5.6212 20.88 6.14437 20.88H17.5118C18.035 20.88 18.4591 20.4559 18.4591 19.9327V16.9724H20.7089C21.232 16.9724 21.6562 16.5483 21.6562 16.0252V8.92052C21.6562 7.54263 20.47 6.55231 19.1695 6.55231H18.4591V3.94728C18.4591 3.42411 18.0349 3 17.5118 3H6.14436ZM6.14436 8.44689L6.14117 8.44688H4.48662C4.08682 8.44688 3.89457 8.7289 3.89457 8.92052V15.0779H5.19709V13.8938C5.19709 13.3706 5.6212 12.9465 6.14437 12.9465H17.5118C18.035 12.9465 18.4591 13.3706 18.4591 13.8938V15.0779H19.7616V8.92052C19.7616 8.7289 19.5693 8.44688 19.1695 8.44688H17.515L17.5118 8.44689L17.5086 8.44688H6.14754L6.14436 8.44689ZM16.5645 14.8411V16.0228L16.5645 16.0252L16.5645 16.0275V18.9854H7.09166V14.8411H16.5645ZM7.09164 6.55231H16.5645V4.89457H7.09164V6.55231ZM18.2228 10.6967C18.2228 11.2853 17.7457 11.7624 17.1571 11.7624C16.5685 11.7624 16.0914 11.2853 16.0914 10.6967C16.0914 10.1081 16.5685 9.63099 17.1571 9.63099C17.7457 9.63099 18.2228 10.1081 18.2228 10.6967Z" />
</svg>