<svg width="24" height="24" viewBox="0 0 24 24" fill="currentColor" xmlns="http://www.w3.org/2000/svg">
  <path fill-rule="evenodd" clip-rule="evenodd"
    d="M9.50689 5.98108C10.2973 5.65369 11.1445 5.48517 12 5.48517C12.8555 5.48517 13.7027 5.65369 14.4931 5.98108C15.2835 6.30848 16.0017 6.78836 16.6067 7.39332L17.932 8.71866H16.0577C15.5615 8.71866 15.1591 9.12098 15.1591 9.61726C15.1591 10.1135 15.5615 10.5158 16.0577 10.5158H20.1014C20.2476 10.5158 20.3856 10.481 20.5075 10.419C20.5584 10.3933 20.6074 10.3623 20.6536 10.3262C20.7129 10.28 20.7662 10.2265 20.8123 10.167C20.8464 10.123 20.8759 10.0765 20.9007 10.0283C20.9642 9.9051 21 9.76536 21 9.61726V5.57359C21 5.07731 20.5977 4.67499 20.1014 4.67499C19.6051 4.67499 19.2028 5.07731 19.2028 5.57359V7.44787L17.8775 6.12251C17.1056 5.35067 16.1893 4.73842 15.1809 4.3207C14.1724 3.90298 13.0915 3.68799 12 3.68799C10.9085 3.68799 9.82759 3.90298 8.81914 4.3207C7.81068 4.73842 6.89437 5.35067 6.12254 6.12251C5.77161 6.47344 5.77161 7.04239 6.12254 7.39332C6.47346 7.74424 7.04242 7.74424 7.39334 7.39332C7.99829 6.78836 8.71648 6.30848 9.50689 5.98108ZM3.47027 13.5926C3.59759 13.5234 3.74351 13.4841 3.89859 13.4841H7.94226C8.43854 13.4841 8.84086 13.8864 8.84086 14.3827C8.84086 14.879 8.43854 15.2813 7.94226 15.2813H6.06798L7.39334 16.6067C7.9983 17.2116 8.71648 17.6915 9.50689 18.0189C10.2973 18.3463 11.1445 18.5148 12 18.5148C12.8555 18.5148 13.7027 18.3463 14.4931 18.0189C15.2835 17.6915 16.0017 17.2116 16.6067 16.6067C16.9576 16.2557 17.5265 16.2557 17.8775 16.6067C18.2284 16.9576 18.2284 17.5265 17.8775 17.8775C17.1056 18.6493 16.1893 19.2616 15.1809 19.6793C14.1724 20.097 13.0915 20.312 12 20.312C10.9085 20.312 9.8276 20.097 8.81914 19.6793C7.81068 19.2616 6.89438 18.6493 6.12254 17.8775L4.79719 16.5521V18.4264C4.79719 18.9226 4.39487 19.325 3.89859 19.325C3.40231 19.325 3 18.9226 3 18.4264V14.3827C3 14.1835 3.06483 13.9994 3.17454 13.8504C3.22711 13.779 3.28997 13.7157 3.36095 13.6626C3.37068 13.6553 3.38056 13.6483 3.39059 13.6414C3.41028 13.6279 3.43054 13.6151 3.45131 13.6032C3.45758 13.5995 3.4639 13.596 3.47027 13.5926Z" />
</svg>