<svg width="24" height="24" viewBox="0 0 24 24" fill="none" xmlns="http://www.w3.org/2000/svg">
<path fill-rule="evenodd" clip-rule="evenodd" d="M4.75 5V19.5H19.25V8.91421L15.3358 5H10V8.25085H15C15.5523 8.25085 16 8.69857 16 9.25085C16 9.80314 15.5523 10.2509 15 10.2509H9C8.44772 10.2509 8 9.80314 8 9.25085V5H4.75ZM3.26256 3.51256C3.59075 3.18438 4.03587 3 4.5 3H15.4393C15.6692 3 15.8967 3.04527 16.109 3.13321C16.3214 3.22116 16.5143 3.35006 16.6768 3.51256L20.7374 7.57322C20.8999 7.73572 21.0288 7.92864 21.1168 8.14096C21.2047 8.35329 21.25 8.58085 21.25 8.81066V19.75C21.25 20.2141 21.0656 20.6592 20.7374 20.9874C20.4092 21.3156 19.9641 21.5 19.5 21.5H4.5C4.03587 21.5 3.59075 21.3156 3.26256 20.9874C2.93437 20.6592 2.75 20.2141 2.75 19.75V4.75C2.75 4.28587 2.93438 3.84075 3.26256 3.51256ZM12.0005 13.2509C11.1031 13.2509 10.3755 13.9784 10.3755 14.8759C10.3755 15.7733 11.1031 16.5009 12.0005 16.5009C12.898 16.5009 13.6255 15.7733 13.6255 14.8759C13.6255 13.9784 12.898 13.2509 12.0005 13.2509ZM8.37555 14.8759C8.37555 12.8738 9.99852 11.2509 12.0005 11.2509C14.0026 11.2509 15.6255 12.8738 15.6255 14.8759C15.6255 16.8779 14.0026 18.5009 12.0005 18.5009C9.99852 18.5009 8.37555 16.8779 8.37555 14.8759Z" fill="#333333"/>
</svg>
