<svg width="25" height="24" viewBox="0 0 25 24" fill="currentColor" xmlns="http://www.w3.org/2000/svg">
  <path fill-rule="evenodd" clip-rule="evenodd"
    d="M11.5 5H5V19.5H11.5C12.0523 19.5 12.5 19.9477 12.5 20.5C12.5 21.0523 12.0523 21.5 11.5 21.5H4.75C4.28587 21.5 3.84075 21.3156 3.51256 20.9874C3.18437 20.6592 3 20.2141 3 19.75V4.75C3 4.28587 3.18438 3.84075 3.51256 3.51256C3.84075 3.18438 4.28587 3 4.75 3H11.5C12.0523 3 12.5 3.44772 12.5 4C12.5 4.55228 12.0523 5 11.5 5ZM15.8581 7.60539C16.2487 7.21487 16.8818 7.21487 17.2724 7.60539L21.2099 11.5429C21.6004 11.9334 21.6004 12.5666 21.2099 12.9571L17.2724 16.8946C16.8818 17.2851 16.2487 17.2851 15.8581 16.8946C15.4676 16.5041 15.4676 15.8709 15.8581 15.4804L18.0885 13.25H10C9.44772 13.25 9 12.8023 9 12.25C9 11.6977 9.44772 11.25 10 11.25H18.0885L15.8581 9.01961C15.4676 8.62908 15.4676 7.99592 15.8581 7.60539Z" />
</svg>