<svg width="14" height="18" viewBox="0 0 14 18" fill="none" xmlns="http://www.w3.org/2000/svg">
<path fill-rule="evenodd" clip-rule="evenodd" d="M13 8C13.4045 8 13.7691 7.75636 13.9239 7.38268C14.0787 7.00901 13.9931 6.57889 13.7071 6.29289L7.70711 0.292893C7.31658 -0.0976311 6.68342 -0.0976311 6.29289 0.292893L0.292892 6.29289C0.00689406 6.57889 -0.078662 7.00901 0.0761193 7.38268C0.230901 7.75636 0.595537 8 0.999999 8L13 8ZM7 2.41421L10.5858 6L3.41421 6L7 2.41421ZM1 10C0.595538 10 0.230902 10.2436 0.0761213 10.6173C-0.0786597 10.991 0.00689601 11.4211 0.292894 11.7071L6.29289 17.7071C6.68342 18.0976 7.31658 18.0976 7.70711 17.7071L13.7071 11.7071C13.9931 11.4211 14.0787 10.991 13.9239 10.6173C13.7691 10.2436 13.4045 10 13 10H1ZM7 15.5858L3.41421 12H10.5858L7 15.5858Z" fill="#333333"/>
</svg>
