<svg width="24" height="24" viewBox="0 0 24 24" fill="currentColor" xmlns="http://www.w3.org/2000/svg">
  <path fill-rule="evenodd" clip-rule="evenodd"
    d="M9.75 9.5C10.3023 9.5 10.75 9.94772 10.75 10.5V16.5C10.75 17.0523 10.3023 17.5 9.75 17.5C9.19772 17.5 8.75 17.0523 8.75 16.5V10.5C8.75 9.94772 9.19772 9.5 9.75 9.5Z" />
  <path fill-rule="evenodd" clip-rule="evenodd"
    d="M14.25 9.5C14.8023 9.5 15.25 9.94772 15.25 10.5V16.5C15.25 17.0523 14.8023 17.5 14.25 17.5C13.6977 17.5 13.25 17.0523 13.25 16.5V10.5C13.25 9.94772 13.6977 9.5 14.25 9.5Z" />
  <path fill-rule="evenodd" clip-rule="evenodd"
    d="M7.25 3C7.25 2.44772 7.69772 2 8.25 2H15.75C16.3023 2 16.75 2.44772 16.75 3C16.75 3.55228 16.3023 4 15.75 4H8.25C7.69772 4 7.25 3.55228 7.25 3Z" />
  <path fill-rule="evenodd" clip-rule="evenodd"
    d="M5.24624 5.00001L3.74963 5.00001C3.19735 5.00001 2.74963 5.44772 2.74963 6.00001C2.74963 6.55229 3.19735 7.00001 3.74963 7.00001L4.24963 7.00001V20.25C4.24963 20.7141 4.43401 21.1592 4.7622 21.4874C5.09039 21.8156 5.53551 22 5.99963 22H17.9996C18.4638 22 18.9089 21.8156 19.2371 21.4874C19.5653 21.1593 19.7496 20.7141 19.7496 20.25V7L20.2496 7C20.8019 7 21.2496 6.55228 21.2496 6C21.2496 5.44771 20.8019 5 20.2496 5L18.7496 5L5.25303 5.00001C5.2519 5 5.25077 5 5.24963 5C5.2485 5 5.24737 5 5.24624 5.00001ZM6.24963 7.00001V20H17.7496V7L6.24963 7.00001Z" />
</svg>