<svg width="24" height="24" viewBox="0 0 24 24" fill="none" xmlns="http://www.w3.org/2000/svg">
<path fill-rule="evenodd" clip-rule="evenodd" d="M7.04709 8.93408C7.04709 6.19866 9.26458 3.98117 12 3.98117C14.7354 3.98117 16.9529 6.19866 16.9529 8.93408C16.9529 11.6695 14.7355 13.887 12.0001 13.887C12 13.887 12 13.887 12 13.887C9.26458 13.887 7.04709 11.6695 7.04709 8.93408ZM15.9877 14.6075C17.7698 13.3526 18.9341 11.2793 18.9341 8.93408C18.9341 5.10449 15.8296 2 12 2C8.17041 2 5.06592 5.10449 5.06592 8.93408C5.06592 11.2793 6.23021 13.3526 8.01231 14.6075C7.42371 14.8274 6.85215 15.0964 6.3039 15.4128C4.57193 16.4124 3.13351 17.8502 2.13314 19.5817C1.85946 20.0554 2.02162 20.6613 2.49533 20.935C2.96904 21.2087 3.57492 21.0465 3.8486 20.5728C4.67504 19.1423 5.86338 17.9545 7.29422 17.1287C8.72504 16.3029 10.348 15.8682 12 15.8682C12 15.8682 12.0001 15.8682 12.0001 15.8682C13.6522 15.8682 15.2751 16.303 16.706 17.1288C18.1368 17.9546 19.3251 19.1425 20.1515 20.573C20.4252 21.0467 21.0311 21.2089 21.5048 20.9352C21.9785 20.6615 22.1407 20.0557 21.867 19.5819C20.8667 17.8504 19.4283 16.4126 17.6963 15.4129C17.148 15.0965 16.5764 14.8274 15.9877 14.6075Z" fill="#333333"/>
</svg>
