<svg width="25" height="24" viewBox="0 0 25 24" fill="none" xmlns="http://www.w3.org/2000/svg">
<path fill-rule="evenodd" clip-rule="evenodd" d="M10.6277 4.36699C11.5883 3.97687 12.6465 3.89542 13.6554 4.13394C14.1929 4.261 14.7316 3.9283 14.8587 3.39083C14.9857 2.85336 14.653 2.31465 14.1156 2.18759C12.7025 1.85354 11.2205 1.96761 9.87517 2.51399C8.52987 3.06037 7.38799 4.01195 6.608 5.23669C5.82801 6.46144 5.44858 7.8986 5.52238 9.34874C5.59617 10.7989 6.11953 12.1901 7.01982 13.3293C7.44334 13.8653 7.94041 14.333 8.49321 14.7203C7.89238 14.9436 7.30906 15.2175 6.74976 15.5403C5.00133 16.5494 3.54924 18.0009 2.53937 19.7488C2.26309 20.2271 2.42679 20.8387 2.905 21.115C3.38321 21.3913 3.99485 21.2276 4.27113 20.7493C5.10542 19.3053 6.30505 18.1062 7.7495 17.2725C9.19394 16.4388 10.8323 16 12.5001 16C14.1679 16 15.8062 16.4389 17.2507 17.2726C18.6951 18.1063 19.8947 19.3054 20.729 20.7495C21.0052 21.2277 21.6169 21.3914 22.0951 21.1152C22.5733 20.8389 22.737 20.2273 22.4608 19.7491C21.4509 18.001 19.9989 16.5496 18.2505 15.5404C17.6938 15.2191 17.1133 14.9463 16.5155 14.7236C17.1652 14.2691 17.7367 13.7047 18.2023 13.0512C19.0448 11.8686 19.4984 10.4531 19.5 9.0011C19.5006 8.44882 19.0534 8.00061 18.5011 7.99999C17.9488 7.99938 17.5006 8.4466 17.5 8.99888C17.4988 10.0356 17.175 11.0463 16.5734 11.8907C15.9718 12.7351 15.1223 13.3713 14.1428 13.711C13.1633 14.0507 12.1023 14.0771 11.1071 13.7865C10.1119 13.4959 9.2318 12.9027 8.58898 12.0893C7.94616 11.2759 7.57248 10.2825 7.51979 9.2471C7.4671 8.21167 7.73801 7.18552 8.29494 6.31104C8.85186 5.43656 9.66718 4.75711 10.6277 4.36699ZM16 5.25001C16 4.69772 16.4477 4.25001 17 4.25001H21.5C22.0523 4.25001 22.5 4.69772 22.5 5.25001C22.5 5.80229 22.0523 6.25 21.5 6.25H17C16.4477 6.25 16 5.80229 16 5.25001Z" fill="#333333"/>
</svg>
