<svg width="16" height="16" viewBox="0 0 16 16" fill="currentColor" xmlns="http://www.w3.org/2000/svg">
  <path fill-rule="evenodd" clip-rule="evenodd"
    d="M13.118 1.9937C13.118 1.62898 12.8223 1.33331 12.4576 1.33331C12.0929 1.33331 11.7972 1.62898 11.7972 1.9937V2.81919H10.9717C10.607 2.81919 10.3113 3.11486 10.3113 3.47958C10.3113 3.8443 10.607 4.13997 10.9717 4.13997H11.7972V4.96546C11.7972 5.33018 12.0929 5.62585 12.4576 5.62585C12.8223 5.62585 13.118 5.33018 13.118 4.96546V4.13997H13.9435C14.3082 4.13997 14.6039 3.8443 14.6039 3.47958C14.6039 3.11486 14.3082 2.81919 13.9435 2.81919H13.118V1.9937ZM8.00004 10.5788C6.89867 10.5788 5.81668 10.8686 4.86278 11.4191C3.90888 11.9697 3.11666 12.7616 2.56569 13.7152C2.38324 14.031 1.97932 14.1391 1.66351 13.9567C1.34771 13.7742 1.2396 13.3703 1.42205 13.0545C2.08897 11.9001 3.04791 10.9416 4.20256 10.2752C4.57037 10.0629 4.95392 9.88266 5.34894 9.73557C4.75992 9.322 4.27368 8.77511 3.93154 8.13676C3.51122 7.35253 3.32626 6.46363 3.39888 5.57683C3.4715 4.69004 3.79862 3.84307 4.34093 3.13768C4.88324 2.43229 5.61768 1.89847 6.45602 1.60037C7.29436 1.30226 8.20094 1.25254 9.06685 1.45719C9.42179 1.54107 9.64153 1.89681 9.55765 2.25176C9.47376 2.60671 9.11802 2.82644 8.76307 2.74256C8.14468 2.59641 7.49724 2.63192 6.89853 2.84481C6.29982 3.05771 5.77532 3.43893 5.38802 3.94269C5.00073 4.44645 4.76711 5.05132 4.71525 5.68463C4.66339 6.31795 4.79548 6.95276 5.09565 7.51282C5.39583 8.07288 5.85133 8.53436 6.40742 8.84183C6.96351 9.14929 7.59655 9.28966 8.23048 9.24607C8.86442 9.20248 9.47229 8.97678 9.98106 8.5961C10.4898 8.21541 10.8779 7.69593 11.0986 7.10005C11.2252 6.75803 11.6052 6.58346 11.9472 6.71013C12.2892 6.83681 12.4638 7.21676 12.3371 7.55878C12.0281 8.39315 11.4847 9.12056 10.7723 9.65361C10.7341 9.68223 10.6954 9.71022 10.6564 9.73758C11.0496 9.88432 11.4313 10.0639 11.7975 10.2753C12.9522 10.9417 13.9111 11.9003 14.578 13.0546C14.7604 13.3704 14.6523 13.7744 14.3365 13.9568C14.0207 14.1392 13.6168 14.0311 13.4343 13.7153C12.8834 12.7617 12.0912 11.9698 11.1373 11.4192C10.1834 10.8686 9.10141 10.5788 8.00004 10.5788Z" />
</svg>