<svg width="24" height="24" viewBox="0 0 24 24" fill="currentColor" xmlns="http://www.w3.org/2000/svg">
  <g id="Users">
    <g id="Group 4">
      <path id="Vector (Stroke)" fill-rule="evenodd" clip-rule="evenodd"
        d="M16.1531 7.79006C15.6857 7.72329 15.2084 7.75047 14.7532 7.86975C14.2993 7.98871 13.8276 7.74286 13.6997 7.32062C13.5718 6.89837 13.8361 6.45963 14.2901 6.34067C14.9801 6.15983 15.7037 6.11863 16.4123 6.21985C17.1209 6.32107 17.7979 6.56236 18.3978 6.92746C18.9977 7.29256 19.5065 7.77299 19.8899 8.3364C20.2734 8.89982 20.5226 9.53312 20.6207 10.1937C20.7189 10.8542 20.6638 11.5267 20.459 12.1657C20.2543 12.8048 19.9047 13.3956 19.4338 13.8984C18.9629 14.4012 18.3817 14.8042 17.7292 15.0805C17.0767 15.3567 16.3682 15.4997 15.6513 15.4998C15.1797 15.4998 14.7973 15.1442 14.7973 14.7056C14.7972 14.2669 15.1795 13.9112 15.6511 13.9112C16.124 13.9111 16.5913 13.8168 17.0217 13.6346C17.4521 13.4524 17.8355 13.1865 18.1461 12.8549C18.4567 12.5232 18.6873 12.1335 18.8223 11.712C18.9574 11.2905 18.9937 10.8469 18.929 10.4112C18.8642 9.97551 18.6999 9.55778 18.4469 9.18615C18.194 8.81452 17.8584 8.49762 17.4627 8.2568C17.067 8.01598 16.6205 7.85682 16.1531 7.79006Z" />
      <path id="Union" fill-rule="evenodd" clip-rule="evenodd"
        d="M5.45669 10.2401C5.45669 8.33128 7.0041 6.78387 8.91293 6.78387C10.8218 6.78387 12.3692 8.33128 12.3692 10.2401C12.3692 12.1489 10.8218 13.6963 8.91293 13.6963C7.0041 13.6963 5.45669 12.1489 5.45669 10.2401ZM8.91293 5C6.0189 5 3.67282 7.34608 3.67282 10.2401C3.67282 11.9111 4.45497 13.3994 5.67315 14.3589C5.48231 14.4404 5.29425 14.5292 5.1094 14.6252C3.93454 15.2354 2.92374 16.1194 2.16235 17.2024C1.87904 17.6054 1.97606 18.1617 2.37904 18.445C2.78202 18.7283 3.33836 18.6313 3.62167 18.2283C4.21847 17.3794 5.01075 16.6866 5.93164 16.2083C6.85252 15.73 7.87497 15.4803 8.91266 15.4802C9.95035 15.4802 10.9728 15.7298 11.8937 16.208C12.8147 16.6863 13.607 17.3791 14.2039 18.2279C14.4872 18.6309 15.0435 18.7279 15.4465 18.4445C15.8495 18.1612 15.9464 17.6048 15.6631 17.2019C14.9016 16.1189 13.8908 15.235 12.7158 14.6249C12.5312 14.529 12.3433 14.4403 12.1527 14.359C13.3709 13.3994 14.153 11.9111 14.153 10.2401C14.153 7.34607 11.807 5 8.91293 5Z" />
      <path id="Vector (Stroke)_2" fill-rule="evenodd" clip-rule="evenodd"
        d="M18.3087 16.7191C17.4827 16.2646 16.5656 16.0277 15.6349 16.0284C15.193 16.0287 14.8346 15.6495 14.8343 15.1813C14.8339 14.7131 15.1919 14.3333 15.6337 14.333C16.8215 14.3321 17.992 14.6345 19.0461 15.2145C20.1003 15.7945 21.0069 16.6351 21.6894 17.6652C21.9433 18.0483 21.856 18.577 21.4943 18.846C21.1327 19.115 20.6337 19.0225 20.3799 18.6393C19.8451 17.8322 19.1346 17.1736 18.3087 16.7191Z" />
    </g>
  </g>
</svg>