<svg width="25" height="24" viewBox="0 0 25 24" fill="currentColor" xmlns="http://www.w3.org/2000/svg">
  <g id="UserCircle">
    <path id="Vector (Stroke)" fill-rule="evenodd" clip-rule="evenodd"
      d="M12.5 4C8.08172 4 4.5 7.58172 4.5 12C4.5 16.4183 8.08172 20 12.5 20C16.9183 20 20.5 16.4183 20.5 12C20.5 7.58172 16.9183 4 12.5 4ZM2.5 12C2.5 6.47715 6.97715 2 12.5 2C18.0228 2 22.5 6.47715 22.5 12C22.5 17.5228 18.0228 22 12.5 22C6.97715 22 2.5 17.5228 2.5 12Z" />
    <path id="Vector (Stroke)_2" fill-rule="evenodd" clip-rule="evenodd"
      d="M12.5 8.5C10.9812 8.5 9.75 9.73122 9.75 11.25C9.75 12.7688 10.9812 14 12.5 14C14.0188 14 15.25 12.7688 15.25 11.25C15.25 9.73122 14.0188 8.5 12.5 8.5ZM7.75 11.25C7.75 8.62665 9.87665 6.5 12.5 6.5C15.1234 6.5 17.25 8.62665 17.25 11.25C17.25 13.8734 15.1234 16 12.5 16C9.87665 16 7.75 13.8734 7.75 11.25Z" />
    <path id="Vector (Stroke)_3" fill-rule="evenodd" clip-rule="evenodd"
      d="M12.5 16C11.4384 16 10.3975 16.2938 9.49249 16.8488C8.58752 17.4038 7.85378 18.1984 7.37249 19.1447C7.12211 19.6369 6.52008 19.833 6.02781 19.5827C5.53554 19.3323 5.33945 18.7302 5.58983 18.238C6.23844 16.9627 7.22728 15.8919 8.44688 15.1439C9.66649 14.3959 11.0693 14 12.5 14C13.9307 14 15.3335 14.3959 16.5531 15.1439C17.7727 15.8918 18.7615 16.9627 19.4102 18.2379C19.6605 18.7302 19.4644 19.3322 18.9722 19.5826C18.4799 19.833 17.8779 19.6369 17.6275 19.1446C17.1462 18.1984 16.4125 17.4038 15.5075 16.8488C14.6025 16.2938 13.5616 16 12.5 16Z" />
  </g>
</svg>