<svg width="24" height="24" viewBox="0 0 24 24" fill="none" xmlns="http://www.w3.org/2000/svg">
<path fill-rule="evenodd" clip-rule="evenodd" d="M19.677 2.99058C19.677 2.4435 19.2335 2 18.6864 2C18.1394 2 17.6959 2.4435 17.6959 2.99058V3.32047C17.525 3.39513 17.3641 3.48852 17.216 3.59804L16.9298 3.43284C16.456 3.1593 15.8502 3.32163 15.5767 3.79542C15.3031 4.2692 15.4655 4.87504 15.9392 5.14858L16.2253 5.31374C16.2152 5.40472 16.21 5.49719 16.21 5.59086C16.21 5.68453 16.2152 5.77699 16.2253 5.86796L15.9392 6.03312C15.4655 6.30666 15.3031 6.91249 15.5767 7.38628C15.8502 7.86007 16.456 8.0224 16.9298 7.74886L17.2159 7.58367C17.3641 7.6932 17.525 7.78659 17.6959 7.86126V8.19115C17.6959 8.73823 18.1394 9.18173 18.6864 9.18173C19.2335 9.18173 19.677 8.73823 19.677 8.19115V7.86126C19.8479 7.78659 20.0088 7.6932 20.1569 7.58367L20.4431 7.74886C20.9168 8.0224 21.5227 7.86007 21.7962 7.38628C22.0698 6.91249 21.9074 6.30666 21.4336 6.03312L21.1476 5.86795C21.1577 5.77699 21.1629 5.68453 21.1629 5.59086C21.1629 5.49719 21.1577 5.40472 21.1476 5.31375L21.4336 5.14858C21.9074 4.87504 22.0698 4.2692 21.7962 3.79542C21.5227 3.32163 20.9168 3.1593 20.4431 3.43284L20.1569 3.59804C20.0087 3.48852 19.8479 3.39513 19.677 3.32047V2.99058ZM19.1154 5.3432L19.1121 5.33742C19.0256 5.19258 18.8674 5.09557 18.6864 5.09557C18.5055 5.09557 18.3473 5.19258 18.2608 5.33742L18.2575 5.3432L18.2538 5.34961C18.2139 5.421 18.1911 5.50328 18.1911 5.59086C18.1911 5.67822 18.2138 5.76029 18.2535 5.83155L18.2575 5.83849L18.2612 5.84495C18.3477 5.98944 18.5058 6.08616 18.6864 6.08616C18.8671 6.08616 19.0252 5.9894 19.1117 5.84488L19.1154 5.83849L19.1194 5.83162C19.1591 5.76035 19.1817 5.67825 19.1817 5.59086C19.1817 5.50322 19.159 5.42088 19.119 5.34946L19.1154 5.3432ZM12.6865 4.39971C11.7742 4.27301 10.8447 4.4033 10.0025 4.77593C9.16027 5.14856 8.43867 5.74875 7.91886 6.50903C7.39905 7.26931 7.10164 8.15952 7.06006 9.07957C7.01847 9.99962 7.23438 10.913 7.68349 11.7171C8.1326 12.5212 8.79711 13.184 9.6023 13.6311C10.4075 14.0782 11.3214 14.2918 12.2414 14.2479C13.1613 14.204 14.0508 13.9043 14.8098 13.3826C15.5687 12.8609 16.1671 12.1378 16.5376 11.2946C16.7577 10.7938 17.3421 10.5661 17.843 10.7862C18.3439 11.0063 18.5715 11.5908 18.3514 12.0916C17.8413 13.2524 17.0228 14.2506 15.9855 14.9782C16.5749 15.1982 17.1473 15.4675 17.6963 15.7844C19.4283 16.784 20.8667 18.2219 21.867 19.9534C22.1407 20.4271 21.9785 21.033 21.5048 21.3067C21.0311 21.5803 20.4252 21.4182 20.1515 20.9445C19.3251 19.514 18.1368 18.3261 16.706 17.5003C15.2751 16.6744 13.6522 16.2397 12.0001 16.2396C10.348 16.2396 8.72507 16.6744 7.29422 17.5002C5.86338 18.326 4.67504 19.5138 3.8486 20.9443C3.57492 21.418 2.96904 21.5802 2.49533 21.3065C2.02162 21.0328 1.85946 20.4269 2.13314 19.9532C3.13351 18.2217 4.57193 16.7839 6.3039 15.7843C6.85505 15.4662 7.42975 15.196 8.02164 14.9755C7.17137 14.3784 6.46353 13.5957 5.95384 12.6832C5.32499 11.5573 5.02269 10.2784 5.08091 8.99012C5.13913 7.70186 5.55557 6.45539 6.28341 5.39085C7.01125 4.32631 8.02163 3.48592 9.20093 2.96416C10.3802 2.4424 11.6817 2.25997 12.959 2.43738C13.5009 2.51264 13.8792 3.01294 13.8039 3.55482C13.7287 4.0967 13.2284 4.47497 12.6865 4.39971Z" fill="#333333"/>
</svg>
